<svg aria-hidden="true" style="width:0;height:0;position:absolute;overflow:hidden" xmlns="http://www.w3.org/2000/svg"><defs><symbol id="icon-user-check" viewBox="0 0 24 24"><path d="M17 21v-2c0-1.38-.561-2.632-1.464-3.536S13.38 14 12 14H5c-1.38 0-2.632.561-3.536 1.464S0 17.62 0 19v2a1 1 0 0 0 2 0v-2c0-.829.335-1.577.879-2.121S4.171 16 5 16h7c.829 0 1.577.335 2.121.879S15 18.171 15 19v2a1 1 0 0 0 2 0zM13.5 7c0-1.38-.561-2.632-1.464-3.536S9.88 2 8.5 2s-2.632.561-3.536 1.464S3.5 5.62 3.5 7s.561 2.632 1.464 3.536S7.12 12 8.5 12s2.632-.561 3.536-1.464S13.5 8.38 13.5 7zm-2 0c0 .829-.335 1.577-.879 2.121S9.329 10 8.5 10s-1.577-.335-2.121-.879S5.5 7.829 5.5 7s.335-1.577.879-2.121S7.671 4 8.5 4s1.577.335 2.121.879S11.5 6.171 11.5 7zm4.793 4.707 2 2a.999.999 0 0 0 1.414 0l4-4a.999.999 0 1 0-1.414-1.414L19 11.586l-1.293-1.293a.999.999 0 1 0-1.414 1.414z"/></symbol><symbol id="icon-user-plus" viewBox="0 0 24 24"><path d="M17 21v-2c0-1.38-.561-2.632-1.464-3.536S13.38 14 12 14H5c-1.38 0-2.632.561-3.536 1.464S0 17.62 0 19v2a1 1 0 0 0 2 0v-2c0-.829.335-1.577.879-2.121S4.171 16 5 16h7c.829 0 1.577.335 2.121.879S15 18.171 15 19v2a1 1 0 0 0 2 0zM13.5 7c0-1.38-.561-2.632-1.464-3.536S9.88 2 8.5 2s-2.632.561-3.536 1.464S3.5 5.62 3.5 7s.561 2.632 1.464 3.536S7.12 12 8.5 12s2.632-.561 3.536-1.464S13.5 8.38 13.5 7zm-2 0c0 .829-.335 1.577-.879 2.121S9.329 10 8.5 10s-1.577-.335-2.121-.879S5.5 7.829 5.5 7s.335-1.577.879-2.121S7.671 4 8.5 4s1.577.335 2.121.879S11.5 6.171 11.5 7zM23 10h-2V8a1 1 0 0 0-2 0v2h-2a1 1 0 0 0 0 2h2v2a1 1 0 0 0 2 0v-2h2a1 1 0 0 0 0-2z"/></symbol><symbol id="icon-x" viewBox="0 0 24 24"><path d="M5.293 6.707 10.586 12l-5.293 5.293a.999.999 0 1 0 1.414 1.414L12 13.414l5.293 5.293a.999.999 0 1 0 1.414-1.414L13.414 12l5.293-5.293a.999.999 0 1 0-1.414-1.414L12 10.586 6.707 5.293a.999.999 0 1 0-1.414 1.414z"/></symbol><symbol id="icon-arrow-left" viewBox="0 0 32 32"><path d="m12.586 27.414-10-10a2 2 0 0 1 0-2.828l10-10a2 2 0 1 1 2.828 2.828L8.828 14H28a2 2 0 1 1 0 4H8.828l6.586 6.586c.39.39.586.902.586 1.414s-.195 1.024-.586 1.414a2 2 0 0 1-2.828 0z"/></symbol></defs></svg>